# xmcd
#
# Track frame offsets: 
#        150
#        13453
#        24614
#        44654
#        57117
#        70686
#        81143
#        90172
#        97765
#        100216
#        112127
#        122976
#        140428
#        156481
#        166205
#        177633
#        189112
#        192325
#        195820
#        208065
#        215858
#        226594
#        238570
#        247244
#        251587
#        261132
#        273765
#        284602
#        298496
#        301135
#        304749
#        320283
#        331276
#        341121
#
# Disc length: 4616 seconds
#
# Revision: 0
# Processed by: cddbd v1.5.2PL0 Copyright (c) Steve Scherf et al.
# Submitted via: ExactAudioCopy v1.1
#
DISCID=fa120622
DTITLE=Various Artist - Louisiana Hayride_CD10
DYEAR=2017
DGENRE=Country
TTITLE0=Faron Young - I'm Gonna Live Some Before I Die
TTITLE1=James O'Gwynn and Johnny Mathis - What Do You Know About Heartac
TTITLE1=hes?
TTITLE2=Johnny Horton - My Bucket's Got A Hole In It (& Intro theme an
TTITLE2=d line-up talk)
TTITLE3=Jimmy Martin - Sophronie
TTITLE4=Homer and Jethro - Don't Let The Stars Get In Your Eyeballs
TTITLE5=The Four B's - Nine Pound Hammer
TTITLE6=Mallie Ann Harbert - Then I'll Be Happy
TTITLE7=Dobber Johnson - Orange Blossom Special
TTITLE8=Talk and outro theme
TTITLE9=Ferlin Husky - I Feel Better All Over (& Theme and Page talkin
TTITLE9=g about first new series)
TTITLE10=Ferlin Husky - Gone
TTITLE11=Ferlin Husky as Simon Crum - Country Music Is Here To Stay
TTITLE12=Johnny Horton - Jambalaya (& Intro about friendliest city)
TTITLE13=Dee and Patty - First Date (& Horton introduces Dee and Patty)
TTITLE14=Jimmy Martin - Skip Hop And Wobble
TTITLE15=Jimmy Martin - Somebody Touched Me
TTITLE16=Outro
TTITLE17=Hayride intro theme
TTITLE18=James O'Gwynn - Talk To Me Lonesome Heart
TTITLE19=Ferlin Husky - Alabama Jubilee
TTITLE20=The Four B's - Once More
TTITLE21=Tony Douglas - I've Got The World In My Arms
TTITLE22=Margie Singleton - I Want To Be Where You're Gonna Be Tonight
TTITLE23=Intro and KWKH Theme
TTITLE24=George Jones - Nothing Can Stop Me
TTITLE25=George Jones - Color Of The Blues
TTITLE26=Linda Brannon - Wherever You Are
TTITLE27=George Morgan - Candy Kisses
TTITLE28=Hayride Outro
TTITLE29=Intro and theme
TTITLE30=Faron Young - Everytime I'm Kissing You
TTITLE31=Margie Singleton - Blue Blue Day
TTITLE32=Faron Young - Live Fast Love Hard Die Young
TTITLE33=Talk and Outro
EXTD=
EXTT0=
EXTT1=
EXTT2=
EXTT3=
EXTT4=
EXTT5=
EXTT6=
EXTT7=
EXTT8=
EXTT9=
EXTT10=
EXTT11=
EXTT12=
EXTT13=
EXTT14=
EXTT15=
EXTT16=
EXTT17=
EXTT18=
EXTT19=
EXTT20=
EXTT21=
EXTT22=
EXTT23=
EXTT24=
EXTT25=
EXTT26=
EXTT27=
EXTT28=
EXTT29=
EXTT30=
EXTT31=
EXTT32=
EXTT33=
PLAYORDER=
